<?xml version="1.0" encoding="UTF-8"?>
<svg viewBox="0 0 128 128" xmlns="http://www.w3.org/2000/svg">
  <defs>
    <linearGradient id="glow" x1="0%" y1="0%" x2="100%" y2="100%">
      <stop offset="0%" style="stop-color:#00d4ff;stop-opacity:1" />
      <stop offset="100%" style="stop-color:#7c3aed;stop-opacity:1" />
    </linearGradient>
    <filter id="shadow">
      <feDropShadow dx="0" dy="2" stdDeviation="4" flood-color="#00d4ff" flood-opacity="0.3"/>
    </filter>
  </defs>

  <!-- Background circle -->
  <circle cx="64" cy="64" r="60" fill="#0d1117" stroke="url(#glow)" stroke-width="3" filter="url(#shadow)"/>

  <!-- Microphone body -->
  <rect x="50" y="28" width="28" height="44" rx="14" fill="none" stroke="#00d4ff" stroke-width="3"/>

  <!-- Microphone stand -->
  <path d="M38 62 C38 82, 64 96, 64 96 C64 96, 90 82, 90 62" fill="none" stroke="#00d4ff" stroke-width="3" stroke-linecap="round"/>
  <line x1="64" y1="96" x2="64" y2="106" stroke="#00d4ff" stroke-width="3" stroke-linecap="round"/>
  <line x1="50" y1="106" x2="78" y2="106" stroke="#00d4ff" stroke-width="3" stroke-linecap="round"/>

  <!-- Sound waves -->
  <path d="M32 50 C28 58, 28 70, 32 78" fill="none" stroke="#00d4ff" stroke-width="2" stroke-linecap="round" opacity="0.6"/>
  <path d="M24 44 C18 56, 18 72, 24 84" fill="none" stroke="#00d4ff" stroke-width="2" stroke-linecap="round" opacity="0.3"/>
  <path d="M96 50 C100 58, 100 70, 96 78" fill="none" stroke="#00d4ff" stroke-width="2" stroke-linecap="round" opacity="0.6"/>
  <path d="M104 44 C110 56, 110 72, 104 84" fill="none" stroke="#00d4ff" stroke-width="2" stroke-linecap="round" opacity="0.3"/>
</svg>
